<svg width="24" height="24" viewBox="0 0 24 24" fill="none" xmlns="http://www.w3.org/2000/svg">
<path d="M16.358 10.5753C16.5548 9.24469 15.5531 8.52936 14.1833 8.05219L14.6277 6.2497L13.5428 5.97625L13.1102 7.73126C12.825 7.65936 12.5321 7.59154 12.241 7.52435L12.6767 5.7578L11.5924 5.48438L11.1478 7.28625C10.9117 7.23186 10.6799 7.17809 10.455 7.12157L10.4563 7.11591L8.96016 6.7381L8.67153 7.90998C8.67153 7.90998 9.47646 8.09656 9.45953 8.1081C9.77323 8.14847 9.99752 8.4316 9.96503 8.74621L8.74762 13.684C8.68401 13.8924 8.46354 14.0097 8.25518 13.9461C8.25359 13.9456 8.25201 13.9451 8.25043 13.9446C8.26123 13.9606 7.46191 13.7455 7.46191 13.7455L6.92334 15.0015L8.33508 15.3575C8.59772 15.424 8.85508 15.4937 9.10852 15.5593L8.65952 17.3824L9.74314 17.6559L10.1878 15.8522C10.4838 15.9334 10.7712 16.0084 11.0524 16.079L10.6092 17.8743L11.6941 18.1478L12.1431 16.328C13.993 16.6821 15.3841 16.5393 15.9696 14.8472C16.4505 13.8941 16.0677 12.7317 15.1147 12.2508C15.0683 12.2274 15.0209 12.2059 14.9728 12.1863C15.7463 12.0253 16.3148 11.3642 16.358 10.5753ZM13.8792 14.0906C13.544 15.4531 11.2757 14.7165 10.5403 14.5318L11.1361 12.1165C11.8714 12.3021 14.2296 12.6696 13.8792 14.0906ZM14.2148 10.5556C13.9089 11.7949 12.021 11.1653 11.4086 11.0108L11.9487 8.82028C12.5611 8.97467 14.5334 9.26281 14.2148 10.5556V10.5556Z" fill="#A2A1FF"/>
<path d="M11.9487 8.82031L11.4086 11.0109C12.021 11.1653 13.9089 11.7949 14.2148 10.5557C14.5334 9.26288 12.5611 8.97473 11.9487 8.82031ZM11.136 12.1166L10.5403 14.5319C11.2757 14.7166 13.544 15.4531 13.8792 14.0906C14.2296 12.6697 11.8714 12.3022 11.136 12.1166Z" fill="#6563FF"/>
<path d="M12 2C6.47717 2 2 6.47717 2 12C2 17.5228 6.47717 22 12 22C17.5228 22 22 17.5228 22 12C22 6.47717 17.5228 2 12 2ZM16.358 10.5754C16.3148 11.3643 15.7463 12.0255 14.9728 12.1864C15.0209 12.206 15.0682 12.2275 15.1147 12.251C16.0677 12.7318 16.4504 13.8942 15.9696 14.8473C15.384 16.5394 13.993 16.6823 12.1431 16.3282L11.694 18.1479L10.6092 17.8745L11.0523 16.0792C10.7711 16.0085 10.4838 15.9335 10.1877 15.8523L9.7431 17.656L8.65948 17.3826L9.10852 15.5595C8.85504 15.4938 8.59772 15.4241 8.33508 15.3576L6.92334 15.0016L7.46191 13.7457C7.46191 13.7457 8.26123 13.9607 8.25042 13.9448C8.25201 13.9453 8.25359 13.9458 8.25512 13.9462C8.46349 14.0098 8.68401 13.8925 8.74761 13.6841L9.96502 8.74634C9.9975 8.4317 9.77319 8.14862 9.45953 8.10822C9.47644 8.09668 8.67151 7.9101 8.67151 7.9101L8.96015 6.73822L10.4562 7.11603L10.455 7.1217C10.6799 7.17822 10.9117 7.23199 11.1478 7.28637L11.5924 5.48449L12.6767 5.75793L12.241 7.52447C12.5321 7.59167 12.825 7.65948 13.1102 7.73138L13.5427 5.97638L14.6276 6.24982L14.1834 8.05231C15.5531 8.52948 16.5548 9.24481 16.358 10.5754Z" fill="#6563FF"/>
</svg>
