<svg width="24" height="24" viewBox="0 0 24 24" fill="none" xmlns="http://www.w3.org/2000/svg">
<path d="M12.2218 5.97695C13.6432 5.95304 15.0167 6.49036 16.0445 7.4724L18.9127 4.60422C17.1026 2.90422 14.7048 1.97083 12.2218 1.99967C8.44083 1.99822 4.98261 4.13014 3.2854 7.50877L6.62632 10.0997C7.41412 7.66751 9.66541 6.00876 12.2218 5.97695Z" fill="#8382FF"/>
<path d="M3.28544 7.50879C1.86725 10.3348 1.86725 13.6646 3.28544 16.4906L6.62631 13.8997C6.20819 12.6675 6.20819 11.3319 6.62631 10.0997L3.28544 7.50879Z" fill="#6563FF"/>
<path d="M15.6083 17.0686C12.8043 18.8684 9.07213 18.0544 7.27232 15.2503C7.00182 14.8289 6.78484 14.3754 6.62639 13.9004L3.28552 16.4913C4.9827 19.8699 8.44094 22.0019 12.2219 22.0004C14.6562 22.0664 17.0237 21.1997 18.8401 19.5777L15.6083 17.0686Z" fill="#A2A1FF"/>
<path d="M21.64 10.1816H12.2218V14.0498H17.6036C17.3786 15.2862 16.6577 16.3767 15.6082 17.068C15.605 17.0701 15.6017 17.0716 15.5985 17.0736C15.6017 17.0716 15.605 17.0701 15.6082 17.0681L18.8399 19.5772L18.84 19.5771C20.8303 17.6602 21.9139 14.9889 21.8218 12.2271C21.8223 11.5412 21.7615 10.8567 21.64 10.1816Z" fill="#C1C0FF"/>
</svg>
