<svg width="24" height="24" viewBox="0 0 24 24" fill="none" xmlns="http://www.w3.org/2000/svg">
<path d="M19 2H5C3.34515 2.00483 2.00483 3.34515 2 5V13.86L5.88 9.98C7.06747 8.85 8.93253 8.85 10.12 9.98L12.9914 12.867L13.8789 11.9795C15.0524 10.8129 16.9476 10.8129 18.1211 11.9795L22 15.8584V5C21.9952 3.34515 20.6549 2.00483 19 2Z" fill="#A2A1FF"/>
<path d="M10.12 9.98031C8.93253 8.85031 7.06747 8.85031 5.88 9.98031L2 13.8603V19.0003C2.00484 20.6552 3.34516 21.9955 5 22.0003H19C19.8151 22 20.595 21.6678 21.16 21.0803L10.12 9.98031Z" fill="#6563FF"/>
<path d="M21.9999 15.8584L18.121 11.9794C16.9476 10.8128 15.0523 10.8128 13.8789 11.9794L12.9913 12.867L21.1556 21.0755C21.6977 20.5208 22.0008 19.7756 21.9999 19V15.8584Z" fill="#C1C0FF"/>
</svg>
