<svg width="24" height="24" viewBox="0 0 24 24" fill="none" xmlns="http://www.w3.org/2000/svg">
<path d="M17.5624 21.5598C17.4003 21.5597 17.2406 21.5204 17.0971 21.4451L11.9999 18.7654L6.90271 21.4451C6.73754 21.5319 6.55137 21.5708 6.36525 21.5573C6.17914 21.5438 6.0005 21.4786 5.84953 21.3689C5.69856 21.2593 5.58128 21.1095 5.51095 20.9367C5.44062 20.7639 5.42004 20.5748 5.45154 20.3909L6.42517 14.7151L2.30164 10.6961C2.16806 10.5658 2.07358 10.4008 2.02888 10.2196C1.98418 10.0384 1.99105 9.84837 2.0487 9.6709C2.10635 9.49343 2.21249 9.33563 2.35512 9.21532C2.49775 9.09501 2.67119 9.01699 2.85584 8.99009L8.55457 8.16196L11.1029 2.9983C11.195 2.84235 11.3262 2.71311 11.4835 2.62333C11.6407 2.53355 11.8187 2.48633 11.9999 2.48633C12.181 2.48633 12.359 2.53355 12.5162 2.62333C12.6735 2.71311 12.8047 2.84235 12.8968 2.9983L15.4452 8.16187L21.1439 8.99C21.3285 9.0169 21.502 9.09492 21.6446 9.21523C21.7872 9.33554 21.8934 9.49334 21.951 9.67081C22.0087 9.84828 22.0155 10.0383 21.9708 10.2195C21.9262 10.4007 21.8317 10.5657 21.6981 10.696L17.5746 14.715L18.5482 20.3908C18.5728 20.5343 18.5658 20.6815 18.5276 20.8221C18.4894 20.9626 18.4209 21.0931 18.327 21.2045C18.2331 21.3158 18.116 21.4053 17.984 21.4667C17.8519 21.528 17.708 21.5598 17.5623 21.5598L17.5624 21.5598Z" fill="#6563FF"/>
</svg>
