<svg width="24" height="24" viewBox="0 0 24 24" fill="none" xmlns="http://www.w3.org/2000/svg">
<path d="M22 5.79595C21.2512 6.12799 20.4569 6.34585 19.6435 6.44225C20.5003 5.9296 21.1415 5.12289 21.4475 4.17247C20.6421 4.65083 19.7607 4.9876 18.8415 5.16813C18.2784 4.56838 17.5481 4.15167 16.7453 3.97206C15.9424 3.79246 15.1042 3.85824 14.3392 4.16088C13.5742 4.46352 12.9178 4.98905 12.4551 5.6693C11.9925 6.34956 11.7449 7.15314 11.7445 7.97581C11.7442 8.29056 11.7797 8.60432 11.8502 8.91104C10.2189 8.82929 8.62302 8.40541 7.16613 7.66691C5.70924 6.92841 4.42394 5.8918 3.39364 4.62436C2.86901 5.52761 2.70827 6.59682 2.94412 7.6144C3.17998 8.63198 3.7947 9.52145 4.6632 10.1018C4.01159 10.0816 3.37428 9.90575 2.80454 9.58887V9.64072C2.80467 10.588 3.13244 11.5061 3.73228 12.2393C4.33213 12.9725 5.1671 13.4757 6.09561 13.6635C5.74333 13.7595 5.37975 13.8079 5.01461 13.8073C4.75548 13.8073 4.49691 13.7831 4.24227 13.7351C4.50448 14.5501 5.01479 15.2628 5.70187 15.7736C6.38895 16.2844 7.21846 16.5678 8.07447 16.5841C6.35395 17.9314 4.16976 18.5421 2 18.2825C3.87582 19.4885 6.05923 20.1287 8.28924 20.1268C9.82516 20.1373 11.3479 19.8426 12.7689 19.2597C14.19 18.6768 15.481 17.8173 16.5671 16.7312C17.6532 15.6451 18.5127 14.3541 19.0956 12.933C19.6785 11.512 19.9732 9.98926 19.9627 8.45333C19.9627 8.27533 19.9585 8.09844 19.9501 7.92264C20.7542 7.34104 21.4484 6.6209 22 5.79595Z" fill="#6563FF"/>
</svg>
